<svg xmlns="http://www.w3.org/2000/svg" width="375" viewBox="0 0 375 375" height="375" version="1.0"><path d="M 136.414062 57.34375 C 136.414062 61.707031 137.660156 66.695312 139.53125 70.433594 C 143.273438 77.292969 145.144531 84.773438 145.144531 92.878906 C 145.765625 91.632812 145.765625 89.761719 146.390625 88.515625 C 147.011719 83.527344 147.636719 79.164062 147.636719 74.175781 L 147.636719 72.929688 C 147.636719 71.679688 148.261719 71.058594 148.882812 69.8125 C 149.507812 66.695312 150.753906 62.953125 151.378906 59.835938 C 151.378906 59.210938 152 57.964844 152.625 57.34375 C 153.246094 55.472656 154.496094 55.472656 155.742188 57.34375 L 156.363281 57.964844 C 156.988281 54.847656 156.988281 53.601562 158.859375 52.355469 C 160.730469 50.484375 162.597656 49.859375 164.46875 49.859375 L 211.226562 49.859375 C 213.097656 49.859375 214.96875 49.859375 216.839844 50.484375 C 218.707031 51.109375 220.578125 52.355469 221.203125 54.226562 C 221.824219 55.472656 221.824219 56.71875 222.449219 57.964844 L 223.695312 56.71875 C 224.320312 56.09375 225.566406 56.09375 225.566406 57.34375 C 225.566406 57.964844 226.191406 58.589844 226.191406 58.589844 C 226.8125 61.082031 226.8125 63.578125 227.4375 66.070312 C 228.058594 67.941406 228.058594 70.433594 228.683594 72.304688 C 228.683594 72.929688 229.308594 73.550781 229.308594 74.796875 C 229.308594 77.914062 229.308594 81.03125 228.683594 84.148438 L 228.683594 93.5 L 228.683594 92.878906 C 228.683594 91.632812 229.308594 90.382812 229.308594 89.136719 C 229.929688 85.398438 230.554688 81.65625 231.800781 77.914062 L 233.671875 74.175781 C 234.917969 72.304688 236.164062 71.058594 236.789062 68.5625 C 238.035156 63.578125 237.410156 57.964844 237.410156 52.976562 C 236.789062 49.859375 236.789062 46.742188 236.164062 43.625 C 236.789062 44.875 237.410156 46.121094 237.410156 47.367188 C 238.035156 48.613281 238.035156 49.859375 238.660156 50.484375 L 238.660156 49.859375 C 238.035156 46.121094 236.789062 43.003906 235.542969 39.261719 C 234.917969 38.640625 234.917969 38.015625 234.917969 37.390625 C 234.292969 34.898438 233.046875 32.40625 232.425781 29.910156 L 232.425781 29.289062 C 233.671875 31.15625 234.917969 33.652344 236.164062 35.523438 C 236.164062 34.898438 235.542969 34.273438 235.542969 33.652344 C 234.292969 30.535156 233.046875 28.039062 230.554688 26.171875 L 229.308594 24.921875 C 226.8125 21.183594 223.695312 18.066406 219.957031 16.195312 C 218.085938 15.570312 216.214844 14.949219 214.34375 13.703125 C 213.722656 13.703125 213.722656 13.078125 213.097656 13.078125 C 219.332031 13.703125 224.941406 15.570312 230.554688 18.066406 L 229.929688 17.441406 C 224.320312 13.703125 218.085938 11.832031 211.226562 11.207031 C 208.734375 11.207031 206.238281 11.207031 203.746094 9.960938 C 203.121094 9.335938 201.875 9.335938 201.253906 9.335938 C 199.382812 8.714844 198.136719 8.714844 196.886719 8.089844 L 208.109375 8.089844 C 203.121094 7.46875 198.136719 6.84375 193.148438 7.46875 L 185.667969 7.46875 C 189.40625 6.84375 193.148438 6.21875 196.886719 5.597656 C 193.148438 5.597656 189.40625 6.21875 185.667969 6.84375 C 183.796875 7.46875 181.300781 8.089844 179.433594 8.089844 C 176.316406 8.714844 173.199219 8.714844 170.703125 8.714844 C 176.316406 5.597656 183.171875 4.972656 189.40625 3.726562 L 185.667969 3.726562 C 181.300781 3.726562 176.9375 4.351562 172.574219 5.597656 C 168.832031 5.597656 165.714844 6.84375 162.597656 9.335938 C 161.976562 9.960938 161.351562 9.960938 160.730469 10.585938 C 161.976562 9.335938 163.222656 8.714844 164.46875 7.46875 C 165.714844 6.84375 167.585938 5.597656 168.832031 4.972656 C 170.082031 4.351562 171.949219 3.726562 173.199219 3.101562 C 170.082031 3.726562 167.585938 4.972656 164.46875 6.21875 C 159.480469 8.714844 155.117188 13.703125 150.128906 16.820312 C 150.128906 17.441406 149.507812 18.066406 149.507812 18.066406 C 148.882812 18.6875 148.882812 19.9375 148.261719 20.558594 C 148.261719 21.183594 147.636719 21.183594 147.011719 21.183594 C 146.390625 21.804688 145.144531 21.804688 144.519531 21.804688 C 140.15625 23.675781 138.285156 26.792969 137.039062 31.15625 C 138.285156 29.289062 139.53125 27.417969 141.402344 25.546875 C 140.777344 27.417969 140.777344 28.664062 140.15625 30.535156 C 140.15625 31.15625 139.53125 31.78125 139.53125 32.40625 C 138.285156 33.652344 137.660156 35.523438 137.039062 37.390625 L 138.910156 33.652344 L 138.910156 34.898438 C 137.039062 42.378906 136.414062 49.859375 136.414062 57.34375 Z M 136.414062 57.34375"/><path d="M 315.34375 303.601562 C 310.980469 260.585938 305.371094 217.570312 299.757812 174.554688 C 299.136719 170.191406 297.890625 168.320312 294.148438 166.449219 C 280.433594 160.214844 266.71875 153.980469 253 147.746094 C 245.519531 144.628906 237.414062 142.136719 233.675781 133.410156 C 233.675781 132.785156 232.429688 132.785156 231.179688 132.160156 C 216.84375 205.726562 203.125 278.664062 188.789062 352.238281 L 186.917969 352.238281 C 172.578125 279.292969 158.863281 205.734375 144.523438 132.789062 C 143.898438 132.789062 143.277344 132.164062 142.652344 132.164062 C 137.042969 145.257812 123.949219 147.128906 113.351562 152.117188 C 102.753906 157.101562 91.53125 162.089844 80.933594 167.078125 C 77.191406 168.949219 75.320312 170.820312 74.699219 175.183594 C 70.957031 207.601562 67.21875 239.398438 62.851562 271.8125 C 61.605469 284.902344 58.488281 297.371094 59.113281 310.464844 C 59.113281 328.542969 61.605469 346 62.851562 364.082031 L 99.011719 364.082031 C 98.390625 347.871094 97.765625 332.285156 96.519531 316.074219 C 95.894531 304.230469 102.128906 295.503906 104.625 284.902344 L 106.492188 284.902344 C 107.742188 291.136719 108.363281 297.996094 109.609375 304.230469 C 114.597656 322.933594 113.351562 341.011719 106.492188 359.09375 C 105.871094 360.339844 106.492188 362.210938 106.492188 363.457031 L 267.339844 363.457031 C 266.71875 360.339844 266.09375 357.222656 265.46875 354.730469 C 257.988281 336.648438 261.105469 318.570312 264.222656 300.488281 C 264.847656 295.503906 266.09375 289.890625 266.71875 284.902344 C 267.339844 284.902344 267.964844 284.902344 268.585938 284.28125 C 271.082031 293.007812 276.070312 301.738281 276.070312 310.464844 C 276.691406 327.921875 274.820312 346 273.574219 363.457031 L 310.980469 363.457031 C 310.980469 359.09375 311.605469 354.730469 311.605469 350.363281 C 314.097656 335.402344 316.59375 319.191406 315.34375 303.605469 Z M 264.222656 226.296875 C 263.601562 228.167969 261.730469 230.660156 259.859375 230.660156 C 256.742188 231.285156 253 230.660156 249.261719 230.660156 L 239.285156 230.660156 C 235.546875 230.660156 233.675781 229.414062 233.675781 225.671875 C 233.675781 221.933594 235.546875 220.6875 238.664062 220.6875 L 258.613281 220.6875 C 263.601562 220.6875 265.46875 222.554688 264.222656 226.296875 Z M 264.222656 226.296875"/><path d="M 195.019531 150.230469 C 194.394531 151.476562 194.394531 152.722656 193.769531 153.972656 C 198.757812 157.710938 204.371094 160.207031 210.605469 162.074219 C 212.472656 162.699219 213.722656 162.074219 214.34375 160.828125 C 214.96875 159.582031 215.589844 158.335938 216.214844 156.464844 C 217.460938 152.101562 218.085938 147.113281 216.839844 142.125 L 214.96875 134.644531 C 214.34375 132.773438 213.097656 132.152344 211.226562 132.152344 C 204.992188 134.019531 198.757812 137.136719 193.769531 140.253906 C 194.394531 141.503906 194.394531 142.75 195.019531 143.371094 C 197.511719 142.75 200.003906 142.125 201.875 141.503906 C 200.003906 142.75 198.136719 143.371094 195.640625 144.621094 C 195.019531 145.242188 193.769531 145.242188 193.769531 146.488281 C 193.769531 147.738281 194.394531 148.359375 195.640625 148.359375 C 196.886719 148.984375 198.136719 149.605469 200.003906 150.230469 C 198.757812 150.855469 196.886719 150.230469 195.019531 150.230469 Z M 195.019531 150.230469"/><path d="M 180.054688 144.003906 C 180.679688 142.757812 180.679688 142.132812 181.300781 140.886719 C 176.316406 137.769531 170.703125 134.652344 165.09375 132.78125 C 162.597656 132.15625 160.730469 132.78125 159.480469 135.273438 C 158.859375 135.898438 158.859375 137.144531 158.234375 138.390625 C 156.988281 142.757812 156.988281 147.742188 157.613281 152.730469 C 158.234375 155.226562 158.859375 158.34375 160.105469 160.835938 C 160.730469 162.707031 161.976562 163.328125 163.847656 163.328125 C 170.082031 161.460938 176.316406 158.964844 181.300781 155.226562 C 180.679688 153.976562 180.679688 152.730469 180.054688 151.484375 C 178.183594 152.109375 176.316406 152.109375 174.445312 152.730469 C 175.691406 152.109375 177.5625 150.859375 178.808594 150.238281 C 179.433594 149.613281 180.054688 149.613281 180.054688 148.367188 C 180.054688 147.121094 179.433594 146.496094 178.808594 146.496094 C 176.9375 145.875 174.445312 144.625 172.574219 144.003906 Z M 180.054688 144.003906"/><path d="M 193.152344 148.363281 L 193.152344 144 C 193.152344 143.375 192.527344 142.128906 191.90625 141.507812 C 190.035156 139.636719 185.046875 139.636719 182.554688 141.507812 C 181.304688 142.753906 180.683594 150.859375 182.554688 152.726562 C 184.421875 154.597656 187.539062 154.597656 190.035156 153.976562 C 193.152344 152.726562 193.152344 150.859375 193.152344 148.363281 Z M 193.152344 148.363281"/><path d="M 191.90625 183.246094 C 191.921875 185.660156 189.980469 187.625 187.570312 187.644531 C 185.160156 187.664062 183.191406 185.722656 183.175781 183.3125 C 183.15625 180.902344 185.097656 178.933594 187.507812 178.917969 C 189.917969 178.898438 191.886719 180.835938 191.90625 183.246094"/><path d="M 187.535156 200.734375 C 185.042969 200.734375 183.171875 202.601562 183.171875 205.097656 C 183.171875 207.589844 185.042969 209.460938 187.535156 209.460938 C 190.03125 209.460938 191.902344 207.589844 191.902344 205.097656 C 191.902344 202.601562 190.03125 200.734375 187.535156 200.734375 Z M 187.535156 200.734375"/><path d="M 187.652344 221.914062 C 190.0625 221.972656 191.96875 223.96875 191.914062 226.375 C 191.859375 228.785156 189.859375 230.695312 187.449219 230.640625 C 185.039062 230.585938 183.132812 228.585938 183.191406 226.175781 C 183.242188 223.769531 185.242188 221.859375 187.652344 221.914062"/><path d="M 187.53125 245.113281 C 189.941406 245.171875 191.847656 247.167969 191.792969 249.578125 C 191.738281 251.984375 189.738281 253.894531 187.328125 253.839844 C 184.917969 253.785156 183.011719 251.785156 183.066406 249.378906 C 183.121094 246.96875 185.121094 245.058594 187.53125 245.113281"/><path d="M 187.902344 268.441406 C 190.308594 268.496094 192.21875 270.492188 192.167969 272.898438 C 192.113281 275.3125 190.117188 277.222656 187.707031 277.167969 C 185.296875 277.113281 183.386719 275.117188 183.4375 272.707031 C 183.492188 270.296875 185.488281 268.390625 187.902344 268.441406"/></svg>