<svg xmlns="http://www.w3.org/2000/svg" width="375" viewBox="0 0 375 375" height="375" version="1.0"><path d="M 73.007812 262.449219 C 72.796875 258.871094 72.660156 251.644531 72.519531 243.582031 C 72.308594 231.097656 72.167969 216.578125 72.167969 211.109375 C 72.027344 174.570312 76.09375 143.007812 83.320312 116.425781 C 91.246094 86.96875 103.027344 63.546875 117.054688 46.152344 C 120.210938 42.222656 124.488281 41.242188 128.765625 40.332031 C 130.871094 39.839844 132.976562 39.347656 133.675781 38.71875 C 135.640625 36.824219 137.183594 33.878906 138.65625 31.003906 C 141.113281 26.234375 143.496094 21.605469 148.476562 18.800781 C 161.03125 11.785156 174.285156 8.207031 187.609375 8.207031 C 203.460938 8.207031 219.3125 13.1875 233.894531 23.148438 C 248.273438 32.964844 261.53125 47.625 272.46875 67.050781 C 291.054688 100.085938 303.117188 147.144531 303.257812 208.296875 C 303.257812 214.117188 303.1875 228.425781 302.976562 241.261719 C 302.835938 250.167969 302.625 258.304688 302.417969 262.371094 L 300.03125 262.230469 L 281.515625 303.398438 L 280.882812 304.519531 L 254.582031 339.023438 L 252.96875 340.425781 L 217.34375 361.46875 L 213.136719 362.097656 L 143.003906 344.5625 L 139.988281 342.671875 L 75.535156 263.347656 L 76.9375 262.226562 L 73.148438 262.4375 Z M 229.96875 232.078125 C 240.070312 223.941406 248.484375 213.070312 254.449219 200.234375 C 260.550781 186.980469 264.054688 171.761719 264.054688 155.492188 C 264.054688 130.3125 255.640625 107.523438 242.03125 90.898438 C 228.144531 73.996094 208.929688 63.546875 187.609375 63.546875 C 166.289062 63.546875 147.074219 73.996094 133.1875 90.898438 C 119.582031 107.519531 111.164062 130.3125 111.164062 155.492188 C 111.164062 171.972656 114.742188 187.402344 121.054688 200.796875 C 127.15625 213.703125 135.78125 224.714844 146.164062 232.777344 C 145.8125 235.726562 145.039062 238.460938 143.917969 240.984375 C 142.09375 244.984375 139.5 248.417969 136.765625 251.226562 L 108.710938 272.96875 L 114.25 277.386719 L 184.453125 333.773438 L 187.960938 336.578125 L 191.46875 333.773438 L 261.671875 277.386719 L 267.070312 273.039062 L 261.671875 268.691406 L 240 251.296875 C 237.402344 248.628906 234.808594 245.472656 232.914062 241.757812 C 231.441406 238.882812 230.320312 235.65625 229.898438 232.078125 Z M 229.96875 232.078125"/><path d="M 247.214844 249.820312 L 266.152344 249.820312 C 286.632812 249.820312 305.285156 258.164062 318.75 271.703125 C 332.21875 285.167969 340.632812 303.824219 340.632812 324.300781 L 340.632812 367.292969 L 34.636719 367.292969 L 34.636719 324.300781 C 34.636719 303.820312 42.984375 285.167969 56.519531 271.703125 C 69.988281 258.234375 88.644531 249.820312 109.121094 249.820312 L 129.460938 249.820312 L 99.652344 272.894531 L 187.949219 343.800781 L 265.164062 281.800781 L 276.035156 273.105469 L 247.140625 249.890625 Z M 247.214844 249.820312"/></svg>